<svg data-v-2cb57da0="" version="1.0" xmlns="http://www.w3.org/2000/svg" xmlns:xlink="http://www.w3.org/1999/xlink" width="100%" height="100%" viewBox="0 0 180.000000 30.000000" preserveAspectRatio="xMidYMid meet" color-interpolation-filters="sRGB" style="margin:auto">
class="watermarklayer"/>
  <g data-v-2cb57da0="" fill="#E5E1E6" class="iconlinesvg-g iconlinesvg" transform="translate(0,0)">
    <g class="tp-name">
      <g transform="translate(0, 0)">
        <g mask="url(#ecfbe82c-082f-4ab2-8dfa-ffe907fc896b)">
          <rect v-gra="id" width="38.51540946960449" height="42.36370658874512" transform="translate(-6, -6)" style="pointer-events:none" fill="url(#z8AYw7KKcMH71yHTh1Bax)"/>
        </g>
      </g>
      <g transform="translate(30, 2.2147546246302863)">
        <g data-gra="path-name" fill="#E5E1E6" transform="scale(0.9100000000000003)">
          <path d="M1.55 0L1.55-21.19L7.59-21.44L7.59 0L1.55 0Z" transform="translate(-1.553855208946439, 21.436138905238373)"/>
        </g>
      </g>
      <g transform="translate(39, 2.2147546246302863)">
        <g data-gra="path-name" fill="#E5E1E6" transform="scale(0.9100000000000003)">
          <path d="M16.14 0L11.12 0L10.56-2.22Q8.93 0.42 6.04 0.42L6.04 0.42Q3.67 0.42 2.17-0.90Q0.67-2.22 0.67-4.63L0.67-4.63Q0.67-6.11 1.54-7.22Q2.40-8.33 3.92-8.79L3.92-8.79Q5.90-9.36 10.03-9.43L10.03-9.43Q10.03-11.76 9.82-11.90L9.82-11.90Q9.64-12.04 8.69-12.04L8.69-12.04Q8.09-12.04 7.03-11.97L7.03-11.97Q5.33-11.90 2.44-11.58L2.44-11.58Q2.15-13.49 2.01-15.68L2.01-15.68Q3.88-16.07 5.93-16.33Q7.98-16.60 9.61-16.60L9.61-16.60Q12.43-16.60 13.84-15.66Q15.26-14.73 15.68-13.21Q16.10-11.69 16.07-9.36L16.07-9.36L16.03-4.17L16.14 0ZM8.09-3.53Q9.01-3.53 10.03-3.88L10.03-3.88L10.03-6.50L9.75-6.50Q7.13-6.50 6.85-6.22L6.85-6.22Q6.67-6.04 6.59-5.69Q6.50-5.33 6.50-5.01L6.50-5.01Q6.50-4.17 6.89-3.85Q7.27-3.53 8.09-3.53L8.09-3.53Z" transform="translate(-0.6709829311359622, 21.436138905238373)"/>
        </g>
      </g>
      <g transform="translate(57, 2.2147546246302863)">
        <g data-gra="path-name" fill="#E5E1E6" transform="scale(0.9100000000000003)">
          <path d="M11.87-16.24L18.26-16.24L14.02-2.65Q12.78 1.27 11.80 3.05Q10.81 4.84 9.82 5.54L9.82 5.54Q9.25 5.93 8.03 6.14Q6.82 6.36 5.40 6.36L5.40 6.36Q3.28 6.36 2.01 5.97L2.01 5.97Q1.98 5.12 2.08 3.90Q2.19 2.68 2.37 1.84L2.37 1.84Q3.85 1.91 5.26 1.91L5.26 1.91Q6.32 1.91 6.85 1.87L6.85 1.87Q7.38 0.85 7.84-0.28L7.84-0.28L5.40-0.42L-0.04-16.24L6.36-16.24L9.18-4.87L9.22-4.20L9.32-4.20L11.87-16.24Z" transform="translate(0.03531489111241907, 21.436138905238373)"/>
        </g>
      </g>
      <g transform="translate(77, 2.2147546246302863)">
        <g data-gra="path-name" fill="#E5E1E6" transform="scale(0.9100000000000003)">
          <path d="M9.92-16.53Q11.58-16.53 13.38-16.30Q15.19-16.07 17.59-15.68L17.59-15.68L17.59-1.62Q17.59 3.43 14.23 6.22L14.23 6.22Q13.81 6.57 12.32 6.82Q10.84 7.06 8.97 7.06L8.97 7.06Q4.91 7.06 2.54 6.00L2.54 6.00Q2.51 5.23 2.67 3.96Q2.83 2.68 3.00 1.94L3.00 1.94Q5.54 2.33 7.98 2.33L7.98 2.33Q9.22 2.33 10.08 2.21Q10.95 2.08 11.16 1.84L11.16 1.84Q11.44 1.55 11.58-0.28L11.58-0.28Q11.62-0.78 11.62-1.73L11.62-1.73L11.62-2.61Q10.74-1.31 9.36-0.74Q7.98-0.18 6.89-0.18L6.89-0.18Q3.92-0.18 2.40-2.12Q0.88-4.06 0.88-7.80L0.88-7.80Q0.88-10.28 1.57-12.45Q2.26-14.62 3.46-15.47L3.46-15.47Q4.24-16.00 5.99-16.26Q7.73-16.53 9.92-16.53L9.92-16.53ZM9.18-4.59Q10.49-4.59 11.55-5.01L11.55-5.01L11.55-12.40Q11.16-12.47 10.38-12.54L10.38-12.54Q10.03-12.57 9.32-12.57L9.32-12.57Q8.23-12.57 7.95-12.36L7.95-12.36Q7.56-12.08 7.33-10.79Q7.10-9.50 7.10-8.09L7.10-8.09Q7.10-6.14 7.54-5.37Q7.98-4.59 9.18-4.59L9.18-4.59Z" transform="translate(-0.8828722778104767, 21.436138905238373)"/>
        </g>
      </g>
      <g transform="translate(96, 2.2147546246302863)">
        <g data-gra="path-name" fill="#E5E1E6" transform="scale(0.9100000000000003)">
          <path d="M11.51-16.60Q11.97-16.60 12.48-16.49Q13.00-16.39 13.24-16.24L13.24-16.24Q13.24-15.47 13.07-13.68Q12.89-11.90 12.75-11.16L12.75-11.16Q12.40-11.19 11.44-11.19L11.44-11.19Q9.22-11.19 7.49-10.95L7.49-10.95L7.49 0L1.45 0L1.45-16.24L6.50-16.24L7.20-13.63L7.24-13.63Q8.26-14.97 9.43-15.79Q10.59-16.60 11.51-16.60L11.51-16.60Z" transform="translate(-1.4479105356091815, 21.436138905238373)"/>
        </g>
      </g>
      <g transform="translate(110, 2.2147546246302863)">
        <g data-gra="path-name" fill="#E5E1E6" transform="scale(0.9100000000000003)">
          <path d="M9.29 0.46Q5.05 0.46 2.95-1.54Q0.85-3.53 0.85-7.84L0.85-7.84Q0.85-10.21 1.29-11.99Q1.73-13.77 2.37-14.48L2.37-14.48Q3.18-15.40 5.35-16.00Q7.52-16.60 9.43-16.60L9.43-16.60Q13.98-16.60 15.93-14.66Q17.87-12.71 17.87-8.44L17.87-8.44Q17.87-3.85 15.79-1.70Q13.70 0.46 9.29 0.46L9.29 0.46ZM9.39-3.67Q10.77-3.67 11.19-4.64Q11.62-5.62 11.62-8.09L11.62-8.09Q11.62-9.82 11.44-10.75Q11.27-11.69 10.79-12.13Q10.31-12.57 9.32-12.57L9.32-12.57Q7.91-12.57 7.70-12.32L7.70-12.32Q7.42-12.08 7.24-10.77Q7.06-9.46 7.06-8.05L7.06-8.05Q7.06-5.65 7.54-4.66Q8.02-3.67 9.39-3.67L9.39-3.67Z" transform="translate(-0.8475573866980575, 21.436138905238373)"/>
        </g>
      </g>
      <g transform="translate(129, 2.2147546246302863)">
        <g data-gra="path-name" fill="#E5E1E6" transform="scale(0.9100000000000003)">
          <path d="M11.65-16.24L17.69-16.24L17.69 0L12.78 0L12.11-2.72Q9.57 0.35 6.04 0.35L6.04 0.35Q4.77 0.35 3.66 0Q2.54-0.35 1.98-1.02L1.98-1.02Q1.66-1.41 1.50-2.97Q1.34-4.52 1.34-7.70L1.34-7.70L1.34-16.24L7.38-16.24L7.38-7.77Q7.38-7.06 7.42-6.11Q7.45-5.16 7.63-4.91L7.63-4.91Q7.88-4.56 9.04-4.56L9.04-4.56L9.61-4.59Q10.59-4.63 11.65-5.05L11.65-5.05L11.65-16.24Z" transform="translate(-1.3419658622719244, 21.436138905238373)"/>
        </g>
      </g>
      <g transform="translate(147, 2.2147546246302863)">
        <g data-gra="path-name" fill="#E5E1E6" transform="scale(0.9100000000000003)">
          <path d="M17.16-15.22Q17.48-14.83 17.64-13.28Q17.80-11.72 17.80-8.55L17.80-8.55L17.80 0L11.76 0L11.76-8.48L11.76-9.92Q11.76-11.05 11.58-11.34L11.58-11.34Q11.30-11.69 10.28-11.69L10.28-11.69Q9.78-11.69 9.54-11.65L9.54-11.65Q8.55-11.62 7.49-11.19L7.49-11.19L7.49 0L1.45 0L1.45-16.24L6.36-16.24L7.03-13.53Q9.57-16.60 13.10-16.60L13.10-16.60Q14.37-16.60 15.49-16.24Q16.60-15.89 17.16-15.22L17.16-15.22Z" transform="translate(-1.4479105356091815, 21.436138905238373)"/>
        </g>
      </g>
      <g transform="translate(165, 2.2147546246302863)">
        <g data-gra="path-name" fill="#E5E1E6" transform="scale(0.9100000000000003)">
          <path d="M11.55-21.19L17.62-21.44L17.62 0L12.64 0L12.15-2.72Q11.44-1.34 10.06-0.53Q8.69 0.28 6.96 0.28L6.96 0.28Q4.20 0.28 2.56-1.70Q0.92-3.67 0.92-7.63L0.92-7.63Q0.92-10.63 1.62-12.57Q2.33-14.51 3.28-15.36L3.28-15.36Q3.88-15.89 5.74-16.24Q7.59-16.60 9.04-16.60L9.04-16.60Q10.31-16.60 11.65-16.35L11.65-16.35Q11.55-18.05 11.55-18.22L11.55-18.22L11.55-21.19ZM9.61-4.45Q10.56-4.45 11.58-4.77L11.58-4.77L11.58-12.43Q10.56-12.57 9.32-12.57L9.32-12.57Q8.26-12.57 7.98-12.40L7.98-12.40Q7.59-12.11 7.36-10.79Q7.13-9.46 7.13-8.02L7.13-8.02Q7.13-5.86 7.79-5.16Q8.44-4.45 9.61-4.45L9.61-4.45Z" transform="translate(-0.9181871689228958, 21.436138905238373)"/>
        </g>
      </g>
    </g>
  </g>
  <defs v-gra="od"/>
  <defs v-gra="id">
    <filter id="bf80af3c-ebe3-4078-b361-b3c68526fd54" filterUnits="userSpaceOnUse">
      <feColorMatrix type="matrix" values="0 0 0 0 0.99609375  0 0 0 0 0.99609375  0 0 0 0 0.99609375  0 0 0 1 0"/>
    </filter>
    <linearGradient x1="0" y1="1" x2="0" y2="0" id="z8AYw7KKcMH71yHTh1Bax">
      <stop offset="0%" stop-color="#830000"/>
      <stop offset="50%" stop-color="#ff2601"/>
      <stop offset="100%" stop-color="#ff8200"/>
    </linearGradient>
    <filter id="42443b3f1de60f6b6fd3b6a9844b4764" filterUnits="userSpaceOnUse">
      <feColorMatrix type="matrix" values="0 0 0 0 0.99609375  0 0 0 0 0.99609375  0 0 0 0 0.99609375  0 0 0 1 0"/>
    </filter>
  </defs>
  <mask v-gra="im" id="ecfbe82c-082f-4ab2-8dfa-ffe907fc896b">
    <g filter="url(#bf80af3c-ebe3-4078-b361-b3c68526fd54)">
      <g class="imagesvg">
        <g>
          <rect fill="#E5E1E6" fill-opacity="0" stroke-width="2" x="0" y="0" width="26.515409757898052" height="30.36370583548777" class="image-rect"/>
          <svg x="0" y="0" width="26.515409757898052" height="30.36370583548777" filtersec="colorsb2379680433" class="image-svg-svg primary" style="overflow:visible">
            <svg xmlns="http://www.w3.org/2000/svg" viewBox="0 0 119.75 137.1300048828125">
              <title>资源 65</title>
              <path fill="#f48013" d="M0 75.35V0l43.74 26.74v21.77L0 75.35z"/>
              <path fill="#990000" d="M43.74 48.51v87.46L0 109.23V75.35l43.74-26.84z"/>
              <path fill="#f48013" d="M119.75 83.61v-.01L97.21 69.82 53.47 96.56l66.28 40.57V83.61z"/>
              <path fill="#990000" d="M97.21 69.77l22.49-13.79V2.4L53.47 42.98l43.74 26.79z"/>
              <path fill="#FFFF00" d="M97.21 69.77L53.47 42.98v53.58l43.74-26.79z"/>
            </svg>
          </svg>
        </g>
      </g>
    </g>
  </mask>
</svg>
